<svg xmlns="http://www.w3.org/2000/svg" xmlns:xlink="http://www.w3.org/1999/xlink" contentStyleType="text/css" data-diagram-type="DESCRIPTION" height="589px" preserveAspectRatio="none" style="width:670px;height:589px;background:#FFFFFF;" version="1.1" viewBox="0 0 670 589" width="670px" zoomAndPan="magnify"><defs/><g><!--cluster Frontend--><g class="cluster" data-entity="Frontend" data-source-line="8" data-uid="ent0002" id="cluster_Frontend"><path d="M252.36,6 L325.5885,6 A3.75,3.75 0 0 1 328.0885,8.5 L335.0885,28.2969 L383.36,28.2969 A2.5,2.5 0 0 1 385.86,30.7969 L385.86,100.79 A2.5,2.5 0 0 1 383.36,103.29 L252.36,103.29 A2.5,2.5 0 0 1 249.86,100.79 L249.86,8.5 A2.5,2.5 0 0 1 252.36,6" fill="#F0F0F0" style="stroke:#000000;stroke-width:1.5;"/><line style="stroke:#000000;stroke-width:1.5;" x1="249.86" x2="335.0885" y1="28.2969" y2="28.2969"/><text fill="#000000" font-family="sans-serif" font-size="14" font-weight="bold" lengthAdjust="spacing" textLength="72.2285" x="253.86" y="20.9951">Frontend</text></g><!--cluster Backend--><g class="cluster" data-entity="Backend" data-source-line="12" data-uid="ent0004" id="cluster_Backend"><path d="M198.36,127.29 L274.9039,127.29 A3.75,3.75 0 0 1 277.4039,129.79 L284.4039,149.5869 L459.36,149.5869 A2.5,2.5 0 0 1 461.86,152.0869 L461.86,458.68 A2.5,2.5 0 0 1 459.36,461.18 L198.36,461.18 A2.5,2.5 0 0 1 195.86,458.68 L195.86,129.79 A2.5,2.5 0 0 1 198.36,127.29" fill="#E6FFE6" style="stroke:#000000;stroke-width:1.5;"/><line style="stroke:#000000;stroke-width:1.5;" x1="195.86" x2="284.4039" y1="149.5869" y2="149.5869"/><text fill="#000000" font-family="sans-serif" font-size="14" font-weight="bold" lengthAdjust="spacing" textLength="75.5439" x="199.86" y="142.2851">Backends</text></g><!--cluster Controlo--><g class="cluster" data-entity="Controlo" data-source-line="14" data-uid="ent0006" id="cluster_Controlo"><path d="M222.36,233.59 L317.2243,233.59 A3.75,3.75 0 0 1 319.7243,236.09 L326.7243,255.8869 L435.36,255.8869 A2.5,2.5 0 0 1 437.86,258.3869 L437.86,434.68 A2.5,2.5 0 0 1 435.36,437.18 L222.36,437.18 A2.5,2.5 0 0 1 219.86,434.68 L219.86,236.09 A2.5,2.5 0 0 1 222.36,233.59" fill="#ABEEAB" style="stroke:#000000;stroke-width:1.5;"/><line style="stroke:#000000;stroke-width:1.5;" x1="219.86" x2="326.7243" y1="255.8869" y2="255.8869"/><text fill="#000000" font-family="sans-serif" font-size="14" font-weight="bold" lengthAdjust="spacing" textLength="93.8643" x="223.86" y="248.5851">Controlador</text></g><!--cluster Hardware--><g class="cluster" data-entity="Hardware" data-source-line="22" data-uid="ent0011" id="cluster_Hardware"><path d="M193.36,485.18 L271.2301,485.18 A3.75,3.75 0 0 1 273.7301,487.68 L280.7301,507.4769 L474.36,507.4769 A2.5,2.5 0 0 1 476.86,509.9769 L476.86,579.98 A2.5,2.5 0 0 1 474.36,582.48 L193.36,582.48 A2.5,2.5 0 0 1 190.86,579.98 L190.86,487.68 A2.5,2.5 0 0 1 193.36,485.18" fill="#FAF0FF" style="stroke:#000000;stroke-width:1.5;"/><line style="stroke:#000000;stroke-width:1.5;" x1="190.86" x2="280.7301" y1="507.4769" y2="507.4769"/><text fill="#000000" font-family="sans-serif" font-size="14" font-weight="bold" lengthAdjust="spacing" textLength="76.8701" x="194.86" y="500.1751">Hardware</text></g><!--entity Web--><g class="entity" data-entity="Web" data-source-line="9" data-uid="ent0003" id="entity_Web"><rect fill="#FFFFFF" height="46.2969" rx="2.5" ry="2.5" style="stroke:#181818;stroke-width:0.5;" width="103.1436" x="266.29" y="41"/><rect fill="#FFFFFF" height="10" style="stroke:#181818;stroke-width:0.5;" width="15" x="349.4336" y="46"/><rect fill="#FFFFFF" height="2" style="stroke:#181818;stroke-width:0.5;" width="4" x="347.4336" y="48"/><rect fill="#FFFFFF" height="2" style="stroke:#181818;stroke-width:0.5;" width="4" x="347.4336" y="52"/><text fill="#000000" font-family="sans-serif" font-size="14" lengthAdjust="spacing" textLength="63.1436" x="281.29" y="73.9951">Web App</text></g><!--entity b2--><g class="entity" data-entity="b2" data-source-line="13" data-uid="ent0005" id="entity_b2"><rect fill="#FFFFFF" height="46.2969" rx="2.5" ry="2.5" style="stroke:#181818;stroke-width:0.5;" width="185.749" x="224.99" y="162.29"/><rect fill="#FFFFFF" height="10" style="stroke:#181818;stroke-width:0.5;" width="15" x="390.739" y="167.29"/><rect fill="#FFFFFF" height="2" style="stroke:#181818;stroke-width:0.5;" width="4" x="388.739" y="169.29"/><rect fill="#FFFFFF" height="2" style="stroke:#181818;stroke-width:0.5;" width="4" x="388.739" y="173.29"/><text fill="#000000" font-family="sans-serif" font-size="14" lengthAdjust="spacing" textLength="145.749" x="239.99" y="195.2851">Backend de Serviços</text></g><!--entity b1--><g class="entity" data-entity="b1" data-source-line="15" data-uid="ent0007" id="entity_b1"><rect fill="#FFFFFF" height="46.2969" rx="2.5" ry="2.5" style="stroke:#181818;stroke-width:0.5;" width="186.2412" x="235.74" y="268.59"/><rect fill="#FFFFFF" height="10" style="stroke:#181818;stroke-width:0.5;" width="15" x="401.9812" y="273.59"/><rect fill="#FFFFFF" height="2" style="stroke:#181818;stroke-width:0.5;" width="4" x="399.9812" y="275.59"/><rect fill="#FFFFFF" height="2" style="stroke:#181818;stroke-width:0.5;" width="4" x="399.9812" y="279.59"/><text fill="#000000" font-family="sans-serif" font-size="14" lengthAdjust="spacing" textLength="146.2412" x="250.74" y="301.5851">Backend de Controlo</text></g><!--entity b3--><g class="entity" data-entity="b3" data-source-line="16" data-uid="ent0008" id="entity_b3"><rect fill="#FFFFFF" height="46.2969" rx="2.5" ry="2.5" style="stroke:#181818;stroke-width:0.5;" width="166.4102" x="250.66" y="374.89"/><rect fill="#FFFFFF" height="10" style="stroke:#181818;stroke-width:0.5;" width="15" x="397.0702" y="379.89"/><rect fill="#FFFFFF" height="2" style="stroke:#181818;stroke-width:0.5;" width="4" x="395.0702" y="381.89"/><rect fill="#FFFFFF" height="2" style="stroke:#181818;stroke-width:0.5;" width="4" x="395.0702" y="385.89"/><text fill="#000000" font-family="sans-serif" font-size="14" lengthAdjust="spacing" textLength="126.4102" x="265.66" y="407.8851">Ligação Bluetooth</text></g><!--entity F1--><g class="entity" data-entity="F1" data-source-line="23" data-uid="ent0012" id="entity_F1"><rect fill="#FFFFFF" height="46.2969" rx="2.5" ry="2.5" style="stroke:#181818;stroke-width:0.5;" width="254.0195" x="206.85" y="520.18"/><rect fill="#FFFFFF" height="10" style="stroke:#181818;stroke-width:0.5;" width="15" x="440.8695" y="525.18"/><rect fill="#FFFFFF" height="2" style="stroke:#181818;stroke-width:0.5;" width="4" x="438.8695" y="527.18"/><rect fill="#FFFFFF" height="2" style="stroke:#181818;stroke-width:0.5;" width="4" x="438.8695" y="531.18"/><text fill="#000000" font-family="sans-serif" font-size="14" lengthAdjust="spacing" textLength="214.0195" x="221.85" y="553.1751">Raspberry Pi Zero W Firmware</text></g><g class="entity" data-entity="GMN15" data-source-line="29" data-uid="ent0016" id="entity_GMN15"><path d="M6,165.31 L6,205.5756 A0,0 0 0 0 6,205.5756 L179.7246,205.5756 A0,0 0 0 0 179.7246,205.5756 L179.7246,189.44 L224.61,185.44 L179.7246,181.44 L179.7246,175.31 L169.7246,165.31 L6,165.31 A0,0 0 0 0 6,165.31" fill="#FEFFDD" style="stroke:#181818;stroke-width:0.5;"/><path d="M169.7246,165.31 L169.7246,175.31 L179.7246,175.31 L169.7246,165.31" fill="#FEFFDD" style="stroke:#181818;stroke-width:0.5;"/><text fill="#000000" font-family="sans-serif" font-size="13" lengthAdjust="spacing" textLength="148.5923" x="12" y="182.3769">Fornecer serviços para</text><text fill="#000000" font-family="sans-serif" font-size="13" lengthAdjust="spacing" textLength="129.0859" x="12" y="197.5097">movimentar o robô.</text></g><g class="entity" data-entity="GMN18" data-source-line="33" data-uid="ent0019" id="entity_GMN18"><path d="M477.71,271.61 L477.71,287.74 L422.47,291.74 L477.71,295.74 L477.71,311.8756 A0,0 0 0 0 477.71,311.8756 L630.0176,311.8756 A0,0 0 0 0 630.0176,311.8756 L630.0176,281.61 L620.0176,271.61 L477.71,271.61 A0,0 0 0 0 477.71,271.61" fill="#FEFFDD" style="stroke:#181818;stroke-width:0.5;"/><path d="M620.0176,271.61 L620.0176,281.61 L630.0176,281.61 L620.0176,271.61" fill="#FEFFDD" style="stroke:#181818;stroke-width:0.5;"/><text fill="#000000" font-family="sans-serif" font-size="13" lengthAdjust="spacing" textLength="127.1753" x="483.71" y="288.6769">Envio de comandos</text><text fill="#000000" font-family="sans-serif" font-size="13" lengthAdjust="spacing" textLength="121.2085" x="483.71" y="303.8097">para o nosso robô.</text></g><g class="entity" data-entity="GMN21" data-source-line="37" data-uid="ent0022" id="entity_GMN21"><path d="M478.27,377.9 L478.27,394.03 L417.18,398.03 L478.27,402.03 L478.27,418.1656 A0,0 0 0 0 478.27,418.1656 L663.4458,418.1656 A0,0 0 0 0 663.4458,418.1656 L663.4458,387.9 L653.4458,377.9 L478.27,377.9 A0,0 0 0 0 478.27,377.9" fill="#FEFFDD" style="stroke:#181818;stroke-width:0.5;"/><path d="M653.4458,377.9 L653.4458,387.9 L663.4458,387.9 L653.4458,377.9" fill="#FEFFDD" style="stroke:#181818;stroke-width:0.5;"/><text fill="#000000" font-family="sans-serif" font-size="13" lengthAdjust="spacing" textLength="160.0435" x="484.27" y="394.9669">Estabelecer uma ligação</text><text fill="#000000" font-family="sans-serif" font-size="13" lengthAdjust="spacing" textLength="144.8599" x="484.27" y="410.0997">Bluetooth com o robô.</text></g><!--link b2 to b1--><g class="link" data-entity-1="b2" data-entity-2="b1" data-source-line="18" data-uid="lnk9" id="link_b2_b1"><path d="M320.25,209.07 C322.09,226.57 324.0119,244.703 325.8519,262.183" fill="none" id="b2-to-b1" style="stroke:#181818;stroke-width:1;"/><polygon fill="#181818" points="326.48,268.15,329.5159,258.7807,325.9566,263.1775,321.5598,259.6182,326.48,268.15" style="stroke:#181818;stroke-width:1;"/></g><!--link b1 to b3--><g class="link" data-entity-1="b1" data-entity-2="b3" data-source-line="19" data-uid="lnk10" id="link_b1_b3"><path d="M329.95,315.37 C330.79,332.86 331.652,350.9769 332.492,368.4569" fill="none" id="b1-to-b3" style="stroke:#181818;stroke-width:1;"/><polygon fill="#181818" points="332.78,374.45,336.3434,365.2684,332.54,369.4558,328.3526,365.6524,332.78,374.45" style="stroke:#181818;stroke-width:1;"/></g><!--link b3 to F1--><g class="link" data-entity-1="b3" data-entity-2="F1" data-source-line="26" data-uid="lnk13" id="link_b3_F1"><path d="M333.86,421.42 C333.86,448.35 333.86,487.25 333.86,514.1" fill="none" id="b3-to-F1" style="stroke:#181818;stroke-width:1;"/><polygon fill="#181818" points="333.86,520.1,337.86,511.1,333.86,515.1,329.86,511.1,333.86,520.1" style="stroke:#181818;stroke-width:1;"/></g><!--link Web to b2--><g class="link" data-entity-1="Web" data-entity-2="b2" data-source-line="27" data-uid="lnk14" id="link_Web_b2"><path d="M317.86,93.58 C317.86,114.91 317.86,134.81 317.86,156.1" fill="none" id="Web-b2" style="stroke:#181818;stroke-width:1;"/><polygon fill="#181818" points="317.86,87.58,313.86,96.58,317.86,92.58,321.86,96.58,317.86,87.58" style="stroke:#181818;stroke-width:1;"/><polygon fill="#181818" points="317.86,162.1,321.86,153.1,317.86,157.1,313.86,153.1,317.86,162.1" style="stroke:#181818;stroke-width:1;"/></g><!--SRC=[XPB1QkD038RlVWgH77hAqYIGqxBGbfWzj53QGs1l6bj9XjeZhsQSiYnvcXxo0li6UR7LZEkqzMu9nZ2oVdsI_l4511igWWVcUdP7cN-oha716Wgk6tRamZKMJnlXrfKtNB70Qcl3Uo5Ai6iipkf-jjJIMLWHM8QYvu6en806FVrVbpNw6JS4erpO1NBb2D137y0ulumF_CxWRKaOhSZ0LTCahPwp_JjGRAIbFYLV0nWl5tc-N0mvVReaU2JPsUE1kpep0rMUc3SwZd259KjAlyOCOpH4Q2BsCt2lxRZJeVBMRl1uEBumN5Sj1UQmxPHpLUxrrL4caszTfPbsv_c7ZR-ZbCyebEhwGAsxKklouSeFw1j38h_Wti8F4eOLv5Rg4o2VHhYPfquQHA-_fgwpp74Wg6WTWDTni6XIpkAe807VEmZnvcEgvfsjjIiAC0YRuvylMNGbOZgMsCssWqrZmTBjB4VJT61qfQBIBIYDjSZxivHvedZzvQXAGxKrGdMoM9CdbsEFVyVw2m00]--></g></svg>